<?xml version="1.0" encoding="utf-8"?>
<!-- Generator: Adobe Illustrator 16.0.0, SVG Export Plug-In . SVG Version: 6.00 Build 0)  -->
<!DOCTYPE svg PUBLIC "-//W3C//DTD SVG 1.1//EN" "http://www.w3.org/Graphics/SVG/1.1/DTD/svg11.dtd">
<svg height='300px' width='300px'  fill="#000000" xmlns="http://www.w3.org/2000/svg" data-name="Layer 1" viewBox="0 0 84.27 81.86" x="0px" y="0px"><title>201</title><g data-name="Layer1 0 FILL"><path d="M90.8,45.55q-1,.15-2.75,2.5L86.5,50.4q-12.65-4.2-20.75,1.15a14.47,14.47,0,0,0-5.55,6.2,11,11,0,0,0,.1,7.1q2.1-1.3,6.85-1.2a27.45,27.45,0,0,1,2.95.15h.05a34.93,34.93,0,0,0,13.15-6,16.48,16.48,0,0,0,3.85-3.7q1,1.2,5.8,1.15a26,26,0,0,0-.1-3.8,14.34,14.34,0,0,0-2-6m-15.05,10a6.53,6.53,0,0,0-1.1.9l-.3.2q-.15.1-.35-.1a.33.33,0,0,1,0-.35l.25-.3a17.11,17.11,0,0,1,1.45-1,3.06,3.06,0,0,1,1.7-.4q.5.1.5.4t-.3.35h-.5a2.94,2.94,0,0,0-1.35.35M14.45,40.6,18.5,41q4.44,0,6.4-2a51.18,51.18,0,0,1,1.8-8.2A20.17,20.17,0,0,1,16.2,30L12,28a22.11,22.11,0,0,0,.2,5,28.21,28.21,0,0,0,2.25,7.5M29.55,21a41.29,41.29,0,0,0,1.1-5.65q.5-3.67-1.2-4.05a17.85,17.85,0,0,0-3.5.05A16,16,0,0,0,18.8,13.8l2.95,3.45A12.63,12.63,0,0,0,29.55,21Z" transform="translate(-11.43 -10.74)"></path></g><path d="M65.14,92.59a5.44,5.44,0,0,1-3.74-1.73c-2.38-2.32-3.69-6.51-3.89-12.46-4.38.49-8.79.8-13.14.93l-.89,1.91a8.36,8.36,0,0,0,1.69,6,.5.5,0,0,1-.08.65c-1.41,1.26-2.74,1.79-3.95,1.54s-2.36-1.34-3.26-3.22a23.13,23.13,0,0,1-2.45-7,18.74,18.74,0,0,1-2.69-.48l-2.54,3.1a9.73,9.73,0,0,0-1.6,7.37.5.5,0,0,1,0,.34,1.81,1.81,0,0,1-2.6.91,7.07,7.07,0,0,1-2.74-1.28,6.84,6.84,0,0,1-2.71-6,.51.51,0,0,1,0-.18,34.19,34.19,0,0,0,1.28-3.79,14.72,14.72,0,0,0,.71-6.34A25.6,25.6,0,0,1,20,65.45,24.76,24.76,0,0,1,21.2,50.33,31.82,31.82,0,0,1,14,40.82h0a28.83,28.83,0,0,1-2.29-7.63A22.73,22.73,0,0,1,11.5,28l0-.89.35-2.35c.75-5.15,3-9,6.62-11.39h0a16.59,16.59,0,0,1,7.37-2.53,18.51,18.51,0,0,1,3.61-.05c1.49.33,2,1.88,1.64,4.62h0a45.9,45.9,0,0,1-1.08,5.69,39.07,39.07,0,0,1-1.59,5.55c-.21.72-.64,2.12-1.27,4.18A49.51,49.51,0,0,0,25.4,39c-.07.64-.12,1.25-.15,1.81a10.3,10.3,0,0,0,.16,3,18.25,18.25,0,0,1,7.35-4.31,28.18,28.18,0,0,1,14.26,0,66.18,66.18,0,0,1,10.11,3.33,11.41,11.41,0,0,1,.06-5.8.5.5,0,0,1,.47-.34H61.1A12.81,12.81,0,0,1,68,39.44l2-1.17a18.69,18.69,0,0,1,5.93-1.91,14.68,14.68,0,0,1,2.29-.13,5.43,5.43,0,0,1,3-4.31,9.32,9.32,0,0,1,2.91-1.11.5.5,0,0,1,.44.14,10.75,10.75,0,0,1,3.24,6.45,7.09,7.09,0,0,1-.25,3,23.81,23.81,0,0,1,3.67,4.9v0a15.71,15.71,0,0,1,2,5.26,1.93,1.93,0,0,1,1.12-.16,2.73,2.73,0,0,1,1.13.5.5.5,0,0,1-.6.8,1.69,1.69,0,0,0-.7-.31.87.87,0,0,0-.81.29,29.25,29.25,0,0,1,.06,3.63h0v3.36l.24.31a6.21,6.21,0,0,1,.71,1.26h0A3.68,3.68,0,0,1,94.36,64a4.52,4.52,0,0,1-2.86,1.67h0l-1,.2h0l-.89.12a38.86,38.86,0,0,1-8.34,0l1.41,5.49c1.09,4.17,1.9,7,2.39,8.46a.53.53,0,0,1,0,.16c0,3-.46,4.84-1.48,5.69a2.37,2.37,0,0,1-2.06.45,2.82,2.82,0,0,1-1.45-1,3.94,3.94,0,0,1-.52-3.69L72.32,75a12.57,12.57,0,0,0-3.39,2.87A11.71,11.71,0,0,0,66,87.31L67.75,89l.08.1a2,2,0,0,1,.27,1.84c-.31.76-1.19,1.3-2.68,1.66ZM58.5,77.85c.13,6,1.34,10.1,3.6,12.29a4.42,4.42,0,0,0,3.17,1.46c1-.26,1.73-.64,1.9-1.06,0-.09.14-.35-.17-.88l-1.8-1.75a.5.5,0,0,1-.15-.29,12.69,12.69,0,0,1,3.12-10.39,13.16,13.16,0,0,1,4-3.27.5.5,0,0,1,.56.08l7.65,7a.5.5,0,0,1,.14.51,3.16,3.16,0,0,0,.25,3.08,1.83,1.83,0,0,0,.91.69,1.36,1.36,0,0,0,1.18-.25c.52-.43,1.14-1.62,1.12-4.83-.51-1.5-1.29-4.27-2.38-8.46l-1.5-5.85a86.16,86.16,0,0,1-8.77-1.49c-.37-.06-.79-.1-1.21-.14h0a28,28,0,0,0-2.95-.15c-3.06-.07-5.28.31-6.59,1.12a.49.49,0,0,1-.43,0,.5.5,0,0,1-.3-.31,11.57,11.57,0,0,1-.1-7.41,15,15,0,0,1,5.75-6.46c5.43-3.59,12.43-4,20.82-1.33l1.34-2a8.92,8.92,0,0,1,2.43-2.48,21.82,21.82,0,0,0-3.43-4.4l0,0a12.08,12.08,0,0,0-7.94-3.63h0a13.51,13.51,0,0,0-2.6.1,17.68,17.68,0,0,0-5.59,1.8L68.2,40.48a.5.5,0,0,1-.58-.06A11.75,11.75,0,0,0,61,37.6H58a12.4,12.4,0,0,0,.36,6.17v0c0,.13.06.25.09.37A23.17,23.17,0,0,0,59.85,48a.5.5,0,0,1-.9.43,24.22,24.22,0,0,1-1.43-4l-.08-.32c-.27-.3-1.85-1.29-10.67-3.73a27.16,27.16,0,0,0-13.72,0,17.21,17.21,0,0,0-7.42,4.56h0a13.14,13.14,0,0,0-2.94,4.51c-.15.31-.27.57-.38.84a.51.51,0,0,1,0,.11,23.72,23.72,0,0,0-1.31,14.83,24.5,24.5,0,0,0,2.5,7.16.51.51,0,0,1,.05.14c.35,1.66.12,3.92-.71,6.89a35.32,35.32,0,0,1-1.28,3.82,5.79,5.79,0,0,0,2.3,5.1,6,6,0,0,0,2.4,1.11l.12,0c.6.29,1,.21,1.25-.28a10.81,10.81,0,0,1,1.8-8l2.78-3.39h0a17.46,17.46,0,0,0,2.9-6.44l.34-2.95a.5.5,0,1,1,1,.12l-.35,3a18.46,18.46,0,0,1-2.68,6.29,20.41,20.41,0,0,0,2.58.4,67.46,67.46,0,0,0,8.08.1h0c4.46-.13,9-.45,13.47-.95l0-2.06a.48.48,0,0,1,.51-.49.5.5,0,0,1,.49.51ZM36.43,79.29a23.85,23.85,0,0,0,2.34,6.51c.76,1.58,1.62,2.48,2.56,2.67a3.46,3.46,0,0,0,2.76-1A9,9,0,0,1,42.51,81a.49.49,0,0,1,0-.12l.71-1.51C40.57,79.45,38.28,79.43,36.43,79.29ZM72.55,63.67a59.69,59.69,0,0,0,15,1.54,22.38,22.38,0,0,1-5-2.6.5.5,0,0,1,.56-.83,18.65,18.65,0,0,0,7.22,3.13l.32-.06a3.1,3.1,0,0,1,1-3.75,5.81,5.81,0,0,1,1.62-1,5.26,5.26,0,0,0-.36-.56l-.34-.44a.5.5,0,0,1-.11-.31v-3c-2.58,0-4.27-.31-5.21-.92a18.68,18.68,0,0,1-3.64,3.37A34.24,34.24,0,0,1,72.55,63.67Zm21.11-2.61a4.83,4.83,0,0,0-1.39.81,2.14,2.14,0,0,0-.62,2.75,3.29,3.29,0,0,0,1.88-1.17A2.48,2.48,0,0,0,93.66,61.07Zm-17.38-12A18.2,18.2,0,0,0,66,52a14,14,0,0,0-5.37,6,10.52,10.52,0,0,0-.07,6.17,15,15,0,0,1,6.57-1h0a28.34,28.34,0,0,1,2.94.15A34.54,34.54,0,0,0,83,57.45a16.11,16.11,0,0,0,3.74-3.58.5.5,0,0,1,.38-.22.47.47,0,0,1,.41.17c.32.37,1.39,1,4.94,1a27.13,27.13,0,0,0-.09-3.23,14,14,0,0,0-1.81-5.42,7.66,7.66,0,0,0-2.12,2.19l-1.53,2.33a.5.5,0,0,1-.57.2A32.17,32.17,0,0,0,76.27,49.06Zm-61-7.89a31.09,31.09,0,0,0,6.32,8.18l.13-.27a13.65,13.65,0,0,1,2.88-4.54,8.66,8.66,0,0,1-.38-3.81q0-.33,0-.69a10.76,10.76,0,0,1-5.78,1.41Zm-.51-1,3.76.33c2.67,0,4.67-.63,5.88-1.79A49.06,49.06,0,0,1,26,31.33a20.87,20.87,0,0,1-10-.86l-3.59-1.66A23,23,0,0,0,12.7,33,27.82,27.82,0,0,0,14.79,40.13Zm64.44-3.84a12.91,12.91,0,0,1,7.5,3.33,6.38,6.38,0,0,0,.08-2.1A9.7,9.7,0,0,0,84,31.84a8.56,8.56,0,0,0-2.34.94A4.45,4.45,0,0,0,79.22,36.28Zm-66.7-8.55,3.89,1.81a19.85,19.85,0,0,0,9.92.72q.88-2.86,1.19-3.91A48.63,48.63,0,0,0,29,21.45a13.45,13.45,0,0,1-7.58-3.83l-2.7-3.15c-3.18,2.25-5.13,5.77-5.82,10.46l-.35,2.3Zm7-13.82,2.57,3a12.39,12.39,0,0,0,7.07,3.54,48.88,48.88,0,0,0,1-5.18h0c.2-1.47.22-3.27-.81-3.49a17.76,17.76,0,0,0-3.34.06A15.83,15.83,0,0,0,19.56,13.92Zm11.09,1.43h0Z" transform="translate(-11.43 -10.74)"></path></svg>